<svg width="14" height="18" viewBox="0 0 14 18" fill="none" xmlns="http://www.w3.org/2000/svg">
<path d="M1.00024 17.4375V17.4371V2.24995C1.00024 1.78583 1.18461 1.34073 1.51279 1.01255C1.84097 0.684369 2.28608 0.5 2.75019 0.5H11.75C12.2141 0.5 12.6592 0.684369 12.9874 1.01255C13.3156 1.34073 13.4999 1.78583 13.4999 2.24995V17.4371V17.4375C13.4999 17.4483 13.4971 17.459 13.4918 17.4684L13.9263 17.7157L13.4918 17.4684C13.4864 17.4778 13.4787 17.4857 13.4693 17.4913L13.7244 17.9213L13.4693 17.4913C13.46 17.4968 13.4494 17.4998 13.4385 17.5C13.4277 17.5002 13.417 17.4975 13.4075 17.4923L13.4069 17.4921L7.48957 14.2634L7.25009 14.1327L7.0106 14.2634L1.09324 17.4921L1.09273 17.4923C1.08321 17.4975 1.07249 17.5002 1.06165 17.5C1.0508 17.4998 1.04018 17.4968 1.03085 17.4913C1.02151 17.4857 1.01379 17.4778 1.00842 17.4684L0.574365 17.7154L1.00842 17.4684C1.00305 17.459 1.00024 17.4483 1.00024 17.4375Z" stroke="#29272B"/>
</svg>
