<svg width="16" height="16" viewBox="0 0 16 16" fill="none" xmlns="http://www.w3.org/2000/svg">
<path fill-rule="evenodd" clip-rule="evenodd" d="M10.8801 9.93726C11.5821 9.03414 12.0002 7.8993 12.0002 6.66683C12.0002 3.72131 9.61235 1.3335 6.66683 1.3335C3.72131 1.3335 1.3335 3.72131 1.3335 6.66683C1.3335 9.61235 3.72131 12.0002 6.66683 12.0002C7.8993 12.0002 9.03414 11.5821 9.93726 10.8801L12.8621 13.8049C13.1224 14.0653 13.5446 14.0653 13.8049 13.8049C14.0653 13.5446 14.0653 13.1224 13.8049 12.8621L10.8801 9.93726ZM10.6668 6.66683C10.6668 8.87597 8.87597 10.6668 6.66683 10.6668C4.45769 10.6668 2.66683 8.87597 2.66683 6.66683C2.66683 4.45769 4.45769 2.66683 6.66683 2.66683C8.87597 2.66683 10.6668 4.45769 10.6668 6.66683Z" fill="#0097AA"/>
</svg>
