<svg width="19" height="18" viewBox="0 0 19 18" fill="none" xmlns="http://www.w3.org/2000/svg">
<path d="M15.6881 1.1252C15.2406 1.1252 14.8115 1.30296 14.495 1.61938C14.1786 1.93581 14.0008 2.36497 14.0008 2.81246C14.0008 3.25995 14.1786 3.68911 14.495 4.00553C14.8115 4.32196 15.2406 4.49972 15.6881 4.49972C16.1356 4.49972 16.5648 4.32196 16.8812 4.00553C17.1976 3.68911 17.3754 3.25995 17.3754 2.81246C17.3754 2.36497 17.1976 1.93581 16.8812 1.61938C16.5648 1.30296 16.1356 1.1252 15.6881 1.1252ZM12.876 2.81246C12.8759 2.15266 13.1078 1.51385 13.5312 1.00777C13.9545 0.501703 14.5423 0.160602 15.1918 0.0441513C15.8412 -0.0722995 16.5109 0.0433148 17.0837 0.370766C17.6565 0.698218 18.096 1.21666 18.3251 1.83537C18.5543 2.45409 18.5586 3.13369 18.3373 3.75527C18.116 4.37685 17.6832 4.90083 17.1146 5.23553C16.546 5.57023 15.8779 5.69434 15.227 5.58615C14.5761 5.47796 13.984 5.14436 13.5543 4.6437L5.99759 8.15321C6.17124 8.70376 6.17124 9.29442 5.99759 9.84497L13.5543 13.3545C14.0085 12.8262 14.6428 12.4853 15.334 12.398C16.0253 12.3106 16.7243 12.483 17.2957 12.8817C17.8671 13.2804 18.2702 13.877 18.4267 14.556C18.5833 15.2349 18.4823 15.9478 18.1432 16.5564C17.8041 17.1651 17.2511 17.6262 16.5914 17.8504C15.9318 18.0746 15.2123 18.046 14.5726 17.7699C13.9328 17.4939 13.4183 16.9903 13.1288 16.3565C12.8392 15.7228 12.7952 15.0042 13.0054 14.3398L5.44867 10.8303C5.07459 11.2663 4.57596 11.5772 4.01987 11.7213C3.46378 11.8654 2.8769 11.8357 2.33819 11.6363C1.79947 11.4368 1.33476 11.0772 1.00656 10.6057C0.678371 10.1342 0.502441 9.57354 0.502441 8.99909C0.502441 8.42464 0.678371 7.86397 1.00656 7.39249C1.33476 6.92102 1.79947 6.56137 2.33819 6.36192C2.8769 6.16247 3.46378 6.13279 4.01987 6.27688C4.57596 6.42096 5.07459 6.73189 5.44867 7.16785L13.0054 3.65834C12.9193 3.38463 12.8757 3.09937 12.876 2.81246ZM3.31485 7.31183C2.86736 7.31183 2.43819 7.48959 2.12177 7.80602C1.80535 8.12244 1.62758 8.5516 1.62758 8.99909C1.62758 9.44658 1.80535 9.87574 2.12177 10.1922C2.43819 10.5086 2.86736 10.6864 3.31485 10.6864C3.76234 10.6864 4.1915 10.5086 4.50792 10.1922C4.82434 9.87574 5.00211 9.44658 5.00211 8.99909C5.00211 8.5516 4.82434 8.12244 4.50792 7.80602C4.1915 7.48959 3.76234 7.31183 3.31485 7.31183ZM15.6881 13.4985C15.2406 13.4985 14.8115 13.6762 14.495 13.9926C14.1786 14.3091 14.0008 14.7382 14.0008 15.1857C14.0008 15.6332 14.1786 16.0624 14.495 16.3788C14.8115 16.6952 15.2406 16.873 15.6881 16.873C16.1356 16.873 16.5648 16.6952 16.8812 16.3788C17.1976 16.0624 17.3754 15.6332 17.3754 15.1857C17.3754 14.7382 17.1976 14.3091 16.8812 13.9926C16.5648 13.6762 16.1356 13.4985 15.6881 13.4985Z" fill="#29272B"/>
</svg>
